<?xml version="1.0" encoding="utf-8"?>
<!-- Generator: Adobe Illustrator 26.0.3, SVG Export Plug-In . SVG Version: 6.00 Build 0)  -->
<svg version="1.1" id="Layer_1" xmlns="http://www.w3.org/2000/svg" xmlns:xlink="http://www.w3.org/1999/xlink" x="0px" y="0px"
	 viewBox="0 0 1000 1000" style="enable-background:new 0 0 1000 1000;" xml:space="preserve">
<style type="text/css">
	.st0{fill:#42389D;}
	.st1{fill:#16BDCA;}
</style>
<g>
	<path class="st0" d="M513.5,482.7L513.5,482.7c1.7,1.5,3.4,2.9,4.9,4.1C516.9,485.4,515.2,484.1,513.5,482.7z M536,549.5
		c0.8,0.5,1.9,1,2.5,1.5v-0.2C537.7,550.4,536.9,549.9,536,549.5z M783.8,459.5c-5.6-6.3-11.5-11.9-17.8-17.1l-1.4,1.5
		c-9.3,10.5-15.4,21.7-18.5,34.3l-2.5,10.3c33.1,33.4,44.8,84.6,25.8,130.8c-6.1,14.6-14.4,27.5-24.8,38.2l2.5,10.2
		c3.2,12.6,9.2,23.6,18.5,34.1l1.4,1.7c1.4-1.2,2.9-2.4,4.2-3.7C841.3,636.9,846.7,529.3,783.8,459.5z M694.1,407.4
		c0,1.2-0.2,2.4-0.3,3.6C693.9,409.8,694.1,408.6,694.1,407.4L694.1,407.4z"/>
	<path class="st1" d="M868.8,349.7c-11.7,12-25.6,21-40.2,27.1c-0.3,0.2-0.7,0.3-1,0.5c-25.6,10.9-46.6,22.7-63.1,36.3
		c-6.1,5.1-11.5,10.2-16.3,15.8l-0.2,0.2c-5.6,6.6-10.5,13.4-14.2,20.5c-1,1.7-1.9,3.6-2.7,5.3c-1.5,3.4-2.9,6.6-3.9,10.2
		c-0.3,1-0.7,2-1,3.2l-1.2,4.4c-1.9,7.8-2.9,15.8-3.1,24.3c0,1.5,0,3.2,0.2,4.7c-16.1-14.6-37.3-23.7-60.7-24.8
		c1.2-1,2.4-2.2,3.4-3.4c6.1-6.1,11-12.6,15.1-19.3l1.7-2.7c1.2-2.2,2.4-4.2,3.4-6.6c0.2-0.2,0.2-0.2,0.2-0.3c1-2.4,2-4.7,2.9-7
		c0.8-2.4,1.7-4.7,2.4-7.1c0.7-2.2,1.2-4.2,1.7-6.6c0.2-0.7,0.3-1.4,0.5-2.2c0.5-2.4,0.8-4.9,1.2-7.3c0.2-1.2,0.3-2.5,0.3-3.9
		l0.3-3.6c0.5-7.1,0.3-14.8-0.5-22.7c-2-21-8.6-44.3-19.5-69.9c-0.2-0.5-0.3-0.8-0.5-1.4c-18.7-43.2-10.7-95.5,24.4-131.1
		c46.1-47.2,121.9-48,169.3-1.9C914.2,226.8,915.1,302.6,868.8,349.7z"/>
	<g>
		<path class="st0" d="M672.4,404l-0.2,2c-0.8,13.9-4.6,26.1-11.2,37.1l-5.6,9.3c-30.9,0.5-60.7,12.9-82.8,34.6l-10.3-2.5
			c-12.6-3.1-23.7-9.2-34.3-18.3l-1.7-1.5c40.5-103,4.2-166.2-102.3-209.1c-0.2-0.2-0.3-0.2-0.5-0.2
			c-48.5-19.2-82.9-66.3-83.4-121.6C339.4,60.7,398,0.7,471.2,0c73.1-0.8,133,57.8,133.8,130.9c0.2,18.7-3.6,36.5-10.3,52.7
			c-1.2,2.9-2.5,5.8-4.1,8.6c1.4-2.5,2.5-5.1,3.7-7.8c-43.2,106.2-24.8,176.7,77.7,219.3"/>
		<path class="st0" d="M594.7,183.5c-0.2,0.3-0.3,0.7-0.3,1c-1.2,2.5-2.4,5.3-3.7,7.8C592,189.5,593.3,186.6,594.7,183.5z"/>
		<path class="st0" d="M594.7,183.5c-0.2,0.3-0.3,0.7-0.3,1c-1.2,2.5-2.4,5.3-3.7,7.8C592,189.5,593.3,186.6,594.7,183.5z"/>
	</g>
	<path class="st0" d="M673.7,742.9c-44.4,4.2-90.2-9.2-126-39.3C446.5,664,383.9,699.3,341,802.9c-0.2,0.5-0.3,0.8-0.5,1.4
		c-0.3,0.7-0.7,1.5-0.8,2.2c-19.2,48.5-66.3,82.9-121.8,83.6C144.7,890.9,84.7,832.3,84,759.2c-0.8-73.1,57.8-133,130.9-133.8
		c18.7-0.2,36.5,3.6,52.7,10.3c0.2,0,0.2,0.2,0.2,0.2c100.1,41,169.3,27.1,212.9-59.7c2.7-5.6,5.4-11.4,8-17.5
		c6.6,0,14.6,1.4,23.1,4.1c10.3,3.4,19.2,8,24.6,12.7c0.2,0,0.2,0,0.2,0.2c0.2,4.9,0.5,9.8,1.2,14.8c5.6,41.2,32.6,78.5,73.9,95.5
		c14.9,6.1,30.5,9.2,45.6,9.2l5.3,8.6c6.6,11,10.2,23.2,11,37.3L673.7,742.9z"/>
	<path class="st1" d="M586.2,509c-14.6,15.9-23.9,37.1-24.9,60.4c-1-1.2-2.2-2.2-3.2-3.2c-6.1-5.9-12.7-11-19.5-15.1v-0.2
		c-0.8-0.5-1.7-1-2.5-1.4c-2-1.2-3.9-2.2-6.1-3.2c-2.5-1.2-5.3-2.4-8-3.4c-2.2-0.8-4.7-1.7-7-2.2c-2-0.7-4.1-1.2-6.3-1.5
		c-0.8-0.3-1.7-0.5-2.5-0.5c-2-0.5-4.1-0.8-6.3-1c-2.7-0.3-5.6-0.7-8.5-0.8c-7.1-0.5-14.8-0.3-22.6,0.5c-21,2-44.3,8.6-69.7,19.5
		c-0.5,0.2-1,0.3-1.4,0.5c-43.2,18.7-95.3,10.7-131.1-24.4c-47.3-46.1-48.2-121.9-1.9-169.3c46.1-47.3,121.9-48.2,169.3-1.9
		c12.2,11.7,21.2,25.6,27.1,40.2l0.7,1.7c10.9,25.3,22.7,46.3,36.3,62.6c4.9,6.1,10.2,11.5,15.6,16.3v0.2c1.7,1.4,3.4,2.7,4.9,4.1
		c1.7,1.4,3.4,2.5,5.1,3.7c1.7,1.2,3.2,2.2,4.7,3.2c3.7,2.2,7.5,4.2,11.4,6.1c1.9,0.8,3.7,1.7,5.6,2.4c0,0,0,0,0.2,0
		c1.9,0.7,3.9,1.4,5.8,2c1.9,0.7,3.9,1.2,5.9,1.7c7.8,2,15.9,3.1,24.4,3.2C583,509,584.5,509,586.2,509z"/>
	<path class="st1" d="M905.6,878.2c0.7,66.1-52.2,120.3-118.4,120.9c-66.1,0.7-120.3-52.2-120.9-118.4c-0.2-17,3.2-32.9,9.3-47.5
		l0.7-1.7c10.3-25.4,16.8-48.7,18.7-69.7c0.8-7.8,1-15.3,0.5-22.4v-0.3c-0.2-2.5-0.3-5.1-0.7-7.5c0-0.3-0.2-0.7-0.2-1.2
		c-0.7-4.9-1.7-9.8-3.1-14.4c-2.4-8.5-5.1-15.3-9.7-22.9c-0.3-0.5-0.7-1.2-0.7-1.2c-3.9-6.4-9.2-13.4-15.1-19.5
		c-0.8-1-1.9-2-2.9-3.1c23.1-1.2,43.9-10.7,59.7-25.3c-0.2,1.5-0.2,2.9-0.2,4.4c0.2,8.5,1.2,16.8,3.2,24.4c0,0.2,0,0.2,0.2,0.2
		c1.4,5.9,3.6,11.7,6.1,17.3c4.2,9.3,10,17.8,17.3,25.9c0,0-0.2,0-0.2,0.2s0.2,0.2,0.2,0.2c4.7,5.4,10.2,10.7,16.3,15.6
		c16.5,13.2,37.5,24.9,63.1,35.4l1.4,0.7C873.9,785.8,905.1,828.2,905.6,878.2z"/>
	<path class="st0" d="M753.6,573.6c0,27.8-11.9,53.1-30.9,70.7c-15.9,14.6-36.8,24.1-59.7,25.3c-1.9,0.2-3.7,0.2-5.6,0.2
		c-53.1,0-96.3-43.1-96.3-96.2c0-1.4,0-2.9,0.2-4.2c1-23.2,10.2-44.3,24.9-60.4c17.6-19.3,43.1-31.7,71.2-31.7c1.2,0,2.5,0,3.7,0.2
		c23.4,0.8,44.4,10,60.7,24.8C741.4,519.7,753.6,545.1,753.6,573.6z"/>
</g>
</svg>
