<?xml version="1.0" encoding="utf-8"?>
<!-- Generator: Adobe Illustrator 26.0.3, SVG Export Plug-In . SVG Version: 6.00 Build 0)  -->
<svg version="1.1" id="Capa_1" xmlns="http://www.w3.org/2000/svg" xmlns:xlink="http://www.w3.org/1999/xlink" x="0px" y="0px"
	 viewBox="0 0 99 99" style="enable-background:new 0 0 99 99;" xml:space="preserve">
<g>
	<path d="M51.3,47.8L51.3,47.8c0.2,0.2,0.3,0.3,0.5,0.4C51.7,48.1,51.5,48,51.3,47.8z M53.6,54.4c0.1,0.1,0.2,0.1,0.3,0.2v0
		C53.8,54.5,53.7,54.5,53.6,54.4z M78.1,45.5c-0.6-0.6-1.1-1.2-1.8-1.7L76.2,44c-0.9,1-1.5,2.2-1.8,3.4l-0.3,1
		c3.3,3.3,4.4,8.4,2.6,13c-0.6,1.4-1.4,2.7-2.5,3.8l0.3,1c0.3,1.2,0.9,2.3,1.8,3.4l0.1,0.2c0.1-0.1,0.3-0.2,0.4-0.4
		C83.8,63.1,84.4,52.4,78.1,45.5z M69.2,40.4c0,0.1,0,0.2,0,0.4C69.2,40.6,69.2,40.5,69.2,40.4L69.2,40.4z"/>
	<path d="M86.6,34.7c-1.2,1.2-2.5,2.1-4,2.7c0,0-0.1,0-0.1,0.1c-2.5,1.1-4.6,2.3-6.3,3.6c-0.6,0.5-1.1,1-1.6,1.6l0,0
		c-0.6,0.7-1,1.3-1.4,2c-0.1,0.2-0.2,0.4-0.3,0.5c-0.2,0.3-0.3,0.7-0.4,1c0,0.1-0.1,0.2-0.1,0.3l-0.1,0.4c-0.2,0.8-0.3,1.6-0.3,2.4
		c0,0.2,0,0.3,0,0.5c-1.6-1.4-3.7-2.4-6-2.5c0.1-0.1,0.2-0.2,0.3-0.3c0.6-0.6,1.1-1.2,1.5-1.9l0.2-0.3c0.1-0.2,0.2-0.4,0.3-0.7
		c0,0,0,0,0,0c0.1-0.2,0.2-0.5,0.3-0.7c0.1-0.2,0.2-0.5,0.2-0.7c0.1-0.2,0.1-0.4,0.2-0.7c0-0.1,0-0.1,0.1-0.2
		c0.1-0.2,0.1-0.5,0.1-0.7c0-0.1,0-0.3,0-0.4l0-0.4c0.1-0.7,0-1.5-0.1-2.3c-0.2-2.1-0.9-4.4-1.9-6.9c0-0.1,0-0.1-0.1-0.1
		c-1.8-4.3-1.1-9.5,2.4-13c4.6-4.7,12.1-4.8,16.8-0.2C91.1,22.5,91.1,30,86.6,34.7z"/>
	<g>
		<path d="M67.1,40l0,0.2c-0.1,1.4-0.5,2.6-1.1,3.7l-0.6,0.9c-3.1,0.1-6,1.3-8.2,3.4l-1-0.3c-1.2-0.3-2.4-0.9-3.4-1.8L52.6,46
			c4-10.2,0.4-16.5-10.1-20.7c0,0,0,0-0.1,0c-4.8-1.9-8.2-6.6-8.3-12C34.1,6,39.9,0.1,47.2,0c7.2-0.1,13.2,5.7,13.3,13
			c0,1.8-0.4,3.6-1,5.2c-0.1,0.3-0.3,0.6-0.4,0.9c0.1-0.3,0.3-0.5,0.4-0.8C55.1,28.8,56.9,35.8,67.1,40"/>
		<path d="M59.4,18.2c0,0,0,0.1,0,0.1c-0.1,0.3-0.2,0.5-0.4,0.8C59.1,18.8,59.3,18.5,59.4,18.2z"/>
		<path d="M59.4,18.2c0,0,0,0.1,0,0.1c-0.1,0.3-0.2,0.5-0.4,0.8C59.1,18.8,59.3,18.5,59.4,18.2z"/>
	</g>
	<path d="M67.2,73.6c-4.4,0.4-8.9-0.9-12.5-3.9c-10-3.9-16.2-0.4-20.5,9.8c0,0.1,0,0.1-0.1,0.1c0,0.1-0.1,0.2-0.1,0.2
		c-1.9,4.8-6.6,8.2-12.1,8.3c-7.2,0.1-13.2-5.7-13.3-13C8.7,68,14.5,62,21.8,62c1.8,0,3.6,0.4,5.2,1c0,0,0,0,0,0
		c9.9,4.1,16.8,2.7,21.1-5.9c0.3-0.6,0.5-1.1,0.8-1.7c0.7,0,1.4,0.1,2.3,0.4c1,0.3,1.9,0.8,2.4,1.3c0,0,0,0,0,0c0,0.5,0.1,1,0.1,1.5
		c0.6,4.1,3.2,7.8,7.3,9.5c1.5,0.6,3,0.9,4.5,0.9l0.5,0.9c0.7,1.1,1,2.3,1.1,3.7L67.2,73.6z"/>
	<path d="M58.6,50.4c-1.4,1.6-2.4,3.7-2.5,6c-0.1-0.1-0.2-0.2-0.3-0.3c-0.6-0.6-1.3-1.1-1.9-1.5v0c-0.1-0.1-0.2-0.1-0.3-0.1
		c-0.2-0.1-0.4-0.2-0.6-0.3c-0.3-0.1-0.5-0.2-0.8-0.3c-0.2-0.1-0.5-0.2-0.7-0.2c-0.2-0.1-0.4-0.1-0.6-0.2c-0.1,0-0.2-0.1-0.3-0.1
		c-0.2-0.1-0.4-0.1-0.6-0.1c-0.3,0-0.6-0.1-0.8-0.1c-0.7-0.1-1.5,0-2.2,0.1c-2.1,0.2-4.4,0.9-6.9,1.9c-0.1,0-0.1,0-0.1,0.1
		c-4.3,1.8-9.4,1.1-13-2.4c-4.7-4.6-4.8-12.1-0.2-16.8c4.6-4.7,12.1-4.8,16.8-0.2c1.2,1.2,2.1,2.5,2.7,4l0.1,0.2
		c1.1,2.5,2.3,4.6,3.6,6.2c0.5,0.6,1,1.1,1.5,1.6v0c0.2,0.1,0.3,0.3,0.5,0.4c0.2,0.1,0.3,0.3,0.5,0.4c0.2,0.1,0.3,0.2,0.5,0.3
		c0.4,0.2,0.7,0.4,1.1,0.6c0.2,0.1,0.4,0.2,0.6,0.2c0,0,0,0,0,0c0.2,0.1,0.4,0.1,0.6,0.2s0.4,0.1,0.6,0.2c0.8,0.2,1.6,0.3,2.4,0.3
		C58.2,50.4,58.4,50.4,58.6,50.4z"/>
	<path d="M90.2,87c0.1,6.6-5.2,11.9-11.7,12c-6.6,0.1-11.9-5.2-12-11.7c0-1.7,0.3-3.3,0.9-4.7l0.1-0.2c1-2.5,1.7-4.8,1.8-6.9
		c0.1-0.8,0.1-1.5,0.1-2.2v0c0-0.3,0-0.5-0.1-0.7c0,0,0-0.1,0-0.1c-0.1-0.5-0.2-1-0.3-1.4c-0.2-0.8-0.5-1.5-1-2.3
		c0-0.1-0.1-0.1-0.1-0.1c-0.4-0.6-0.9-1.3-1.5-1.9c-0.1-0.1-0.2-0.2-0.3-0.3c2.3-0.1,4.4-1.1,5.9-2.5c0,0.2,0,0.3,0,0.4
		c0,0.8,0.1,1.7,0.3,2.4c0,0,0,0,0,0c0.1,0.6,0.4,1.2,0.6,1.7c0.4,0.9,1,1.8,1.7,2.6c0,0,0,0,0,0c0,0,0,0,0,0c0.5,0.5,1,1.1,1.6,1.5
		c1.6,1.3,3.7,2.5,6.3,3.5l0.1,0.1C87.1,77.9,90.2,82.1,90.2,87z"/>
	<path d="M75.1,56.8c0,2.8-1.2,5.3-3.1,7c-1.6,1.4-3.6,2.4-5.9,2.5c-0.2,0-0.4,0-0.6,0c-5.3,0-9.5-4.3-9.5-9.5c0-0.1,0-0.3,0-0.4
		c0.1-2.3,1-4.4,2.5-6c1.7-1.9,4.3-3.1,7.1-3.1c0.1,0,0.3,0,0.4,0c2.3,0.1,4.4,1,6,2.5C73.9,51.5,75.1,54,75.1,56.8z"/>
</g>
</svg>
